# xmcd
#
# Track frame offsets:
#	150
#	14642
#	28287
#	40137
#	52127
#	66985
#	79722
#	94080
#	115812
#	135530
#
# Disc length: 1967
#
# Revision: 2
# Processed by: cddbd v1.5.1PL0 Copyright (c) Steve Scherf et al.
# Submitted via: CDex 1.30Release
# Normalized: r1:DSETVAR1,TDELIM( - )
#
DISCID=8a07ad0a
DTITLE=Various Artist - Nothin but the Blues
DYEAR=2001
DGENRE=Blues
TTITLE0=Bessie Smith - St Louis Blues
TTITLE1=Blind Lemon Jefferson - Matchbox Blues
TTITLE2=Leroy Carr - Stormy Night Blues
TTITLE3=Bukka White - Parchman Farm Blues
TTITLE4=Big Bill Broonzy - Getting Older Every Day
TTITLE5=Pete Johnson with Big Joe Turner - Roll Em Pete
TTITLE6=Memphis Minnie and Kansas Joe - When the Levee Breaks
TTITLE7=Willie Dixon - I'm Your Hoochie Coochie Man
TTITLE8=Son House - Death Letter
TTITLE9=Taj Mahal - Diving Duck Blues
EXTD=YEAR: 2001 ID3G:   0
EXTT0=
EXTT1=
EXTT2=
EXTT3=
EXTT4=
EXTT5=
EXTT6=
EXTT7=
EXTT8=
EXTT9=
PLAYORDER=
